<?xml version="1.0" encoding="utf-8"?>
<!-- Generator: Adobe Illustrator 21.1.0, SVG Export Plug-In . SVG Version: 6.00 Build 0)  -->
<svg version="1.1" id="Слой_1" xmlns="http://www.w3.org/2000/svg" xmlns:xlink="http://www.w3.org/1999/xlink" x="0px" y="0px"
	 viewBox="0 0 800 600" style="enable-background:new 0 0 800 600;" xml:space="preserve">
<style type="text/css">
	.st0{fill:none;stroke:#231F20;stroke-linecap:round;stroke-miterlimit:10;}
	.st1{fill:#E6E6E6;stroke:#E6E6E6;stroke-linecap:round;stroke-miterlimit:10;}
	.st2{fill:#FFFFFF;stroke:#FFFFFF;stroke-linecap:round;stroke-miterlimit:10;}
	.st3{fill:#E6E6E6;}
	.st4{fill:#0C0C0C;stroke:#0C0C0C;stroke-miterlimit:10;}
	.st5{fill:#E6E6E6;stroke:#E6E6E6;stroke-miterlimit:10;}
	.st6{fill:#E6E6E6;stroke:#E6E6E6;stroke-width:0.75;stroke-linecap:round;stroke-miterlimit:10;}
</style>
<g>
	<rect x="0.5" y="0.5" width="799" height="599"/>
	<path d="M799,1v598H1V1H799 M800,0H0v600h800V0L800,0z"/>
</g>
<path class="st0" d="M417.9,252"/>
<path class="st0" d="M462,260.9"/>
<path class="st0" d="M501.6,283.8"/>
<path class="st0" d="M523,130.9"/>
<g>
	<path class="st1" d="M199.6,216.6"/>
	<path class="st1" d="M243.6,225.5"/>
	<path class="st1" d="M283.3,248.4"/>
	<path class="st2" d="M304.7,95.5"/>
	<g>
		<path class="st3" d="M311.1,407.1c-9-5.7-14.4-10.4-25.2-10.9c-9.4-0.4-17.4,6.3-19.3,15.6c-2.5,12-18.8,21.4-29.6,18.2
			c-11-3.2-21.5-11.1-24.4-23.3c-0.8-3.2-4.8-30,30.4-31c8.4-0.2,19.8-0.9,26-6.5c8.5-7.7,8.1-13.2,9.6-27.3
			c1.6-15.3,4-30.7,1.6-45.9c-1.2-7.7-3.6-15.8-9.7-20.5c-8.9-6.7-18.1-6.1-29.2-4.9c-8.2,0.9-22.8,0.9-30.2-2.6
			c-8.2-3.9-12.2-7.2-12.8-18.5c-0.5-8.9,5.6-17.9,13.8-21.3c11-4.5,21.3,1.6,30.5,9c12.9,10.3,23.9,19.8,39.8,15.4s29-19.3,29-35.8
			c0-7.5-5.5-8.6-3.7-16.7c0.8-3.4,6.4-7.5,10.1-6.8c3.6,0.7,5.4-0.6,13.2,13.8c5.2,9.4,20.8,7.5,30.2,2.4
			c13.8-7.5,25.3-16.3,23.9-37.1c-0.5-7.6-7-25.4-4.8-34.4c2.5-9.8,10.9-15.4,18.4-16.6c10.3-1.7,22.6,8.8,22.8,19.3
			c0.1,10.4-3.4,22.3-4.4,32.7c-1.6,18.5,3.8,32.4,20.9,39.6c3.1,1.3,17.3,8,20.4,9.5c7.5,3.6,18.6,12.6,23.8,15.8
			c9.3,5.6,17,8.5,28.9,7.9c13.3-0.7,24.9-9,37.4-13.5c8.1-2.9,17.2-4.6,25,0.1c4.2,2.5,7.1,6.8,7.2,11.6
			c0.3,10.8-12.4,15.9-22.8,15.7c-9.9-0.2-20.4-2.8-29.2,1.7c-11.3,5.7-14.6,20-15.7,32.6c-0.9,10.6-1.1,21.5,2.3,31.5
			c3.4,10,11.2,19.1,21.5,21.7c6.2,1.5,12.8,0.6,19.1,1.6c6.3,1,13.1,5.1,13.7,11.5c0.9,8.9-6.1,16.7-14.9,15s-21.1-9.7-30-10.8
			c-2-0.3-4.1-0.3-6,0.4c-5.8,2.2-9.1,7-9.8,16.1c-0.7,8.6-6,12-13.8,15.8c-11.2,5.5-15,9.2-19.5,14.2c-6.8,7.6-6.3,19.6-1.6,28.6
			c6.8,12.9,29.8,11.4,31.4,25.4c0.8,7.5-7.5,13.6-15.1,12.9s-15.9-5.3-18.2-12.5c-3.1-9.7-7.2-15.1-10.9-17.6
			c-9.9-6.7-16.1-8.3-23.3-8.5c-12.1-0.3-27.4,5.6-33.6,15.9c-4.5,7.4,1.3,14.2,3.6,22.5c2.5,9,2.6,23-7.9,36.4
			c-6.6,8.5-26,3.1-29.1-2.4c-6.9-12.1-6.8-19.8-2-32.8c1.8-4.9,5.1-9.1,7.1-13.9c2-4.8,3.8-17.6-2.2-22.4
			C353.1,426.3,322.1,414.1,311.1,407.1z"/>
		<g>
			<path class="st3" d="M313.4,403.3c-12.2-7.9-27.7-17.3-41.7-7.1c-2.8,2-5.1,4.6-6.8,7.6c-1.8,3.3-2.2,7-3.8,10.3
				c-2.9,6-9.7,10.5-16.2,11.8c-12.3,2.4-26.3-9.7-28.2-21.5c0.1,0.8-0.1-1.7-0.1-2.5c0-1.4,0-2.8,0.2-4.2c0.5-3.4,1.9-6.8,4.2-9.5
				c8.8-10.3,24.5-7.2,36.3-9.3c13.8-2.4,22.7-12,24.5-25.8c2.5-18.7,5.5-38.6,2.8-57.3c-1.1-7.7-3.3-15.7-8.9-21.5
				c-5.3-5.5-13-8.2-20.5-8.8c-14.8-1.1-30.7,4.9-44.6-2.7c-14.8-8.1-7-31.9,9.6-31.6c9.5,0.2,17.5,7.9,24.5,13.3
				c6.4,5,13,10,20.8,12.3c15,4.5,31.4-3.3,40.9-15c4.6-5.7,7.9-12.4,8.9-19.7c0.5-3.4,0.7-7-0.3-10.4c-0.8-2.8-3-5.3-3.3-8.2
				c-0.3-3,2.2-5.7,5.2-5.9c1.2-0.1,2.3,0.4,2.6,0.6c4.8,3.2,6.1,10.5,10.2,14.6c9.6,9.6,26.1,4.7,36.3-1.1
				c11.5-6.6,20.9-15.7,23-29.3c2.1-14-5-26.5-4.8-40.4c0.1-7.4,5.8-13.7,12.7-15.8c7.4-2.2,15.2,2.6,18.5,9.2
				c3.9,7.6,0,18.6-1.3,26.4c-1.4,7.8-2.4,15.8-1.5,23.7c1.6,14.4,9.8,25.2,23,31.1c10.1,4.5,20.4,8.8,29.5,15.1
				c12.8,8.7,24.4,18.1,40.6,18.8c18.7,0.8,32.4-11.6,49.8-15.5c7.4-1.7,22.3-0.1,20.2,11c-1.2,6.4-9.5,8.9-15.1,9.4
				c-8.6,0.7-17.1-1.6-25.7-0.3c-7.5,1.1-13.8,4.9-18.2,11c-9,12.5-10.1,31.9-8.8,46.7c1.4,15.7,8.8,32.3,24.6,38
				c8.6,3.1,18.5,0.1,26.7,3.9c3.5,1.6,6.1,4.4,5.6,8.5c-0.5,3.8-3.2,7.3-7.1,7.9c-7,1-15.7-5.1-22-7.6c-6.5-2.7-13.9-5-20.7-1.8
				c-5.6,2.7-9,8-10.2,13.9c-0.7,3.5-0.4,7.4-2.3,10.4c-1.8,2.9-5.2,4.7-8.2,6.2c-12.2,6.3-26.4,14.3-28.4,29.4
				c-1,7.1,0.5,15.2,4.3,21.4c3.2,5.1,8.4,8.3,13.7,10.7c4.8,2.2,11.2,3.9,14.8,8c5.3,6.1-2.4,12.5-8.8,11.9
				c-3.8-0.3-7.8-2.1-10.6-4.6c-3.2-2.8-3.9-6.9-5.5-10.7c-2.9-6.7-6.8-11.8-13-15.7c-13-8.2-27.6-9.7-42-4
				c-6.6,2.6-12.9,6.6-17.2,12.4c-5.1,6.9-3.8,13.9-0.8,21.4c2.8,6.8,4.4,13.4,3.4,20.8c-0.9,6.6-4.4,18.3-11.5,20.5
				c-5,1.6-12.2,0.2-16.5-2.7c-5.4-3.5-7-13.4-6.4-19.3c1.1-9.4,6.6-16.4,10-24.8c2.2-5.4,2.9-11.9,1.8-17.7
				c-1.3-7.3-6.2-10.9-12-14.9c-6.8-4.8-14.1-9.1-21.5-13.1C336.9,415.2,324.5,410.2,313.4,403.3c-4.9-3.1-9.4,4.7-4.5,7.7
				c12,7.5,25.5,12.8,37.9,19.7c7.6,4.2,15.1,8.7,22,14c5.6,4.2,5.6,11.3,3.6,17.6c-1.2,3.9-3.7,7.2-5.6,10.8
				c-2.1,4-3.7,8.4-4.7,12.9c-1.8,7.7-1.3,15.2,1.9,22.5c2.8,6.4,5.9,10.2,12.5,12.7c5.8,2.2,12.8,3.2,18.8,1.4
				c7.3-2.1,11.4-8.9,14.4-15.5c3.2-7.2,4.6-15,3.8-22.8c-0.3-3.3-1-6.5-2-9.6c-1.4-3.9-4-8-4.3-12.2c-0.7-8.1,10.6-13.8,17-16
				c14.1-4.7,32.5-1.5,40.2,12.4c2,3.7,2.8,7.9,4.9,11.6c1.8,3.2,4.6,5.8,7.7,7.8c6.2,4,14.6,5.9,21.6,3.1
				c13.9-5.5,14.2-21.9,2.2-29.4c-5.1-3.3-11.1-4.9-16.4-7.9c-6.6-3.8-9.6-10.6-9.6-18.1c0.1-17.1,19.3-21.1,30.3-29.4
				c2.6-2,4.8-4.3,6.2-7.3c1.7-3.6,1.6-7.3,2.4-11.1c1.8-8.7,8.2-10.1,15.9-7.4c12.5,4.3,30,17.2,40.7,2.6
				c4.3-5.8,5.1-14.3,0.8-20.3c-4.7-6.6-12.9-8.5-20.5-8.8c-9.9-0.5-18.2-0.9-25-8.9c-6.3-7.4-8.5-17.2-8.7-26.7
				c-0.4-13.9,0.2-38.9,16.8-43.9c8.9-2.6,18.3,0.5,27.3-0.2c6.5-0.5,13.3-2.5,18.3-7c5.2-4.7,7.2-11.9,4.9-18.5
				c-2.7-7.8-10.5-12.4-18.4-13.3c-19.1-2.3-34,13.2-52,15.8c-17.7,2.5-30.3-8-43.9-17.2c-10-6.8-21.3-10.9-32.1-16.3
				c-14.7-7.3-17.7-22.2-15.7-37.3c2.1-16.4,9.7-35.3-5.4-47.7c-11.9-9.9-28.8-6.6-37.2,6.3c-8.2,12.8-1.1,27.8,1,41.2
				c2.4,15.3-5.6,26.1-18.2,33.4c-6,3.5-13,6.3-20.1,5.3c-7.8-1.1-9.5-9.3-13.9-14.7c-6.3-7.8-18.6-7.2-23.8,2
				c-3.7,6.6,0.2,11.6,2.1,17.7c2.3,7.4-2.6,17-7.3,22.5c-5.3,6.3-13,11.2-21.3,12.4c-9.1,1.4-17-3.4-24-8.6
				c-13.5-9.9-29.6-25.5-47.3-14.5c-12.2,7.7-17.7,26.3-8.3,38.3c8.8,11.2,25.8,11.9,38.7,11.2c8.2-0.5,16.8-2.5,24.7,0.3
				c9,3.2,12.3,11.2,13.8,19.9c1.9,10.8,1.1,21.9,0,32.7c-0.9,8.8-1.2,18.1-3.1,26.8c-3.8,17.2-22.5,14.7-36,16.5
				c-10.8,1.4-21.4,6.3-26.2,16.7c-2.7,5.9-3.4,12.8-2.1,19.1c2.9,13.7,16.6,25.3,30.3,27.3c13.3,1.9,28.2-7.9,32.1-20.7
				c2.4-7.9,7-14,16.1-13.4c8.5,0.6,15.2,5.8,22.1,10.2C313.7,414.1,318.2,406.4,313.4,403.3z"/>
		</g>
	</g>
	<path class="st4" d="M386.5,202.3l-88.1,50.8c-6.1,3.5-9.9,10.1-9.9,17.2v101.7c0,7.1,3.8,13.6,9.9,17.2l88.1,50.8
		c6.1,3.5,13.7,3.5,19.8,0l88.1-50.8c6.1-3.5,9.9-10.1,9.9-17.2V270.4c0-7.1-3.8-13.6-9.9-17.2l-88.1-50.8
		C400.2,198.8,392.6,198.8,386.5,202.3z"/>
	<g>
		<path class="st3" d="M467.5,410.9c-17.8,13.3,38.9-25.2,36.8-36.9c-1.6-8.7-7.6-36.4-11.1-44.5c-11.7-27.1-12.6-36.3-26.2-45.5
			c-7-4.8-20.6-7.1-28.7-4.6c-34.8,10.8-12.5,47.6-3.7,53.8c13,9.2,23.4,9.6,36,16.5C478.5,354.2,517.2,374,467.5,410.9z"/>
		<g>
			<path class="st3" d="M464.5,405.8c-1.9,1.4-4.4,2.8-5.6,4.9c-1.5,2.6-0.8,6.8,2.1,8.1c3.9,1.8,6.6-0.2,9.6-2.4
				c4.1-2.9,8-5.9,11.9-9c8.7-6.9,18.2-14.4,24.5-23.8c2.7-4,3.6-7.7,2.8-12.5c-1.3-7.3-3-14.6-4.7-21.8
				c-4-16.5-10.2-31.9-16.9-47.5c-5.9-13.7-15.6-24.6-30.7-28c-15.6-3.6-35.2,0.9-41.9,17.1c-4.9,11.8-0.6,25.5,5.9,35.9
				c2.6,4.3,5.8,8.4,9.8,11.4c8.6,6.4,18.8,9.2,28.7,13.2c9.1,3.6,19.3,9,24.2,17C492.7,382.6,475.1,397.8,464.5,405.8
				c-6,4.6-0.1,14.9,6,10.3c12.3-9.3,26.6-21.5,27.8-38.1c0.7-10-4.8-18.9-12.2-25.1c-8-6.7-17.6-11.2-27.4-14.7
				c-14-5.1-23-8.8-29.5-22c-4.5-9-6.5-20.9,2.9-27.4c12.2-8.4,30.2-4.3,39.1,7c3.5,4.4,5.7,9.9,7.8,15.1c3.2,7.9,7,15.8,9.7,23.9
				c2.2,6.7,3.8,13.5,5.4,20.4c1.5,6.5,2.3,13.5,4.3,20c-0.1-0.5,0-0.3-0.1-0.2c-0.5,1,0,0,0.1-0.1c-0.3,0.4-0.5,1-0.7,1.4
				c-1.3,2.1-2.2,3.2-3.8,5c-4,4.4-8.4,8.4-12.9,12.3c-4.2,3.6-8.6,7-13,10.4c-1.5,1.1-3,2.2-4.5,3.3c-0.9,0.6-3.7,1.9-1,1
				c1.5,0.2,3.1,0.4,4.6,0.6c0,0,0,0,0,0c0.7,2.7,1.4,5.4,2.1,8.1c-1.5,2.6-0.8,0.6-0.1,0.5c0.9-0.2-1,0.7,0.1-0.1
				c0.5-0.3,0.9-0.7,1.4-1C476.5,411.6,470.6,401.2,464.5,405.8z"/>
		</g>
	</g>
	<circle class="st5" cx="504.3" cy="215" r="9.7"/>
	<circle class="st5" cx="435.5" cy="115.7" r="8.4"/>
	<circle class="st5" cx="598.7" cy="252.7" r="6.7"/>
	<circle class="st5" cx="339.4" cy="455.6" r="12.9"/>
	
		<ellipse transform="matrix(0.6126 -0.7904 0.7904 0.6126 -147.4574 552.6977)" class="st5" cx="490.1" cy="426.8" rx="6.4" ry="6.4"/>
	<circle class="st5" cx="283.3" cy="167.8" r="16.6"/>
	<circle class="st6" cx="571.2" cy="390.2" r="4.7"/>
	<circle class="st5" cx="257" cy="345" r="9.7"/>
	<circle class="st6" cx="278.6" cy="223.6" r="4.7"/>
	<g>
		<path class="st3" d="M329.3,228.7c14.1-8.8-47.4,30-45.2,42.3c1.7,9.3,8.1,38.6,11.8,47.2c12.4,28.8,18.1,30.2,26.4,36.6
			c7.1,5.5,21.5,5.5,29.9,2.4c8.4-3.2,14.7-13,16.3-21.8c3.7-19.4-16-30.5-24-33.5c-13.8-5.2-37.5-2.8-43-17.8
			C296,268.9,295.8,249.5,329.3,228.7z"/>
		<g>
			<path class="st3" d="M332.3,233.8c0.8-0.5,3.6-1.8,0.7-0.7c-2.2-2.9-4.5-5.8-6.7-8.7c1.5-2.6,2.6-2.5,0.4-0.9
				c-1.3,0.9-2.5,1.8-3.8,2.6c-4,2.8-7.9,5.6-11.8,8.5c-9.1,6.8-18.7,13.8-26.2,22.4c-2.7,3.1-5.5,6.6-6.4,10.7
				c-1.2,5.1,1.2,11.4,2.3,16.3c3.4,15.6,6.9,30.9,13.8,45.3c5.3,11.1,11.4,20.7,21.4,28c5.7,4.2,11.1,6.8,18.2,7.6
				c8.1,0.9,17.7,0.1,24.8-4.5c14.6-9.4,20.9-30.7,11.4-45.7c-7.1-11.3-19.8-18.3-32.7-20.9c-8-1.6-16.9-2-24.3-5.7
				c-5.7-2.9-7.5-8.5-8.3-14.6C302.5,255.5,318.6,242.5,332.3,233.8c6.5-4.1,0.5-14.4-6-10.3c-13.7,8.6-28,20.2-32.2,36.6
				c-2.7,10.4-1.2,24.8,6.2,33.1c9.8,10.9,26.7,9.7,39.6,13.4c10,2.8,22.7,11.5,23.1,23.4c0.3,7.7-4.4,17.2-11.4,20.9
				c-6.3,3.3-15.9,3.4-22.5,0.9c-8-3.1-14.3-10.2-18.7-17.6c-7.8-13.1-12.1-26.9-15.6-41.6c-1.6-6.9-3.1-13.8-4.5-20.7
				c-0.1-0.5-0.1-1-0.3-1.5c-0.3-1.1,0,1,0-0.1c0-0.6-0.5,0.9,0.2-0.4c-0.7,1.3,0.4-0.7,0.6-1c0.4-0.7,1.2-1.8,1.5-2.1
				c6.6-8.5,16.7-15.8,25.5-22.4c4-2.9,8-5.8,12.1-8.6c2-1.4,5.5-3.1,6.8-5.3c2.3-4.1-1.6-10.8-6.7-8.7c-1.3,0.5-2.3,1.1-3.5,1.9
				C319.8,227.6,325.7,237.9,332.3,233.8z"/>
		</g>
	</g>
</g>
</svg>
