<?xml version="1.0" encoding="utf-8"?>
<!-- Generator: Adobe Illustrator 21.1.0, SVG Export Plug-In . SVG Version: 6.00 Build 0)  -->
<svg version="1.1" id="Слой_1" xmlns="http://www.w3.org/2000/svg" xmlns:xlink="http://www.w3.org/1999/xlink" x="0px" y="0px"
	 viewBox="0 0 800 600" style="enable-background:new 0 0 800 600;" xml:space="preserve">
<style type="text/css">
	.st0{stroke:#000000;stroke-miterlimit:10;}
	.st1{fill:none;stroke:#000000;stroke-miterlimit:10;}
	.st2{fill:none;stroke:#231F20;stroke-linecap:round;stroke-miterlimit:10;}
	.st3{fill:#FFFFFF;stroke:#000000;stroke-miterlimit:10;}
	.st4{stroke:#000000;stroke-width:0.75;stroke-linecap:round;stroke-miterlimit:10;}
</style>
<g>
	<path class="st0" d="M536.8,147.8"/>
	<path class="st1" d="M499.1,219.5"/>
	<path class="st2" d="M215.7,186.2"/>
	<path class="st2" d="M259.7,195.2"/>
	<path class="st2" d="M299.4,218.1"/>
	<g>
		<path d="M331,376.5c-12.4-11.5-17.3-11.9-29-10.6c-9.4,1.1-18,8.4-19.9,17.6c-2.5,12-18.2,19.3-29,16.1
			c-11-3.2-21.5-11.1-24.4-23.3c-0.8-3.2-4.8-30,30.4-31c8.4-0.2,19.8-0.9,26-6.5c8.5-7.7,11.9-13.3,9.6-27.3
			c-2.6-15.6-2.9-23.6,0-43.8c1.1-7.7-2-17.8-8.2-22.5c-8.9-6.7-18.1-6.1-29.2-4.9c-8.2,0.9-22.8,0.9-30.2-2.6
			c-8.2-3.9-12.2-7.2-12.8-18.5c-0.5-8.9,5.6-17.9,13.8-21.3c11-4.5,21.3,1.6,30.5,9c12.9,10.3,23.9,19.8,39.8,15.4
			c15.9-4.4,29-19.3,29-35.8c0-7.5-5.5-8.6-3.7-16.7c0.8-3.4,6.4-7.5,10.1-6.8c3.6,0.7,5.4-0.6,13.2,13.8c5.2,9.4,20.8,7.5,30.2,2.4
			c13.8-7.5,25.3-16.3,23.9-37.1c-0.5-7.6-7-25.4-4.8-34.4c2.5-9.8,10.9-15.4,18.4-16.6c10.3-1.7,22.6,8.8,22.8,19.3
			s-3.4,22.3-4.4,32.7c-1.6,18.5,3.8,32.4,20.9,39.6c3.1,1.3,17.3,8,20.4,9.5c7.5,3.6,18.6,12.6,23.8,15.8c9.3,5.6,17,8.5,28.9,7.9
			c13.3-0.7,24.9-9,37.4-13.5c8.1-2.9,17.2-4.6,25,0.1c4.2,2.5,7.1,6.8,7.2,11.6c0.3,10.8-12.4,15.9-22.8,15.7
			c-9.9-0.2-20.4-2.8-29.2,1.7c-11.3,5.7-14.6,20-15.7,32.6c-0.9,10.6-1.1,21.5,2.3,31.5c3.4,10,11.2,19.1,21.5,21.7
			c6.2,1.5,12.8,0.6,19.1,1.6c6.3,1,12.3,8.2,12.9,14.6c0.9,8.9-5.4,17.3-14.1,19.1c-12.9,2.7-27.3-13.9-36.1-14.4
			c-6-0.4-10.8-0.1-16.5,8.8c-16.2,25.3-22.1,29.1-26.6,34.1c-6.8,7.6-6.3,19.6-1.6,28.6c6.8,12.9,29.8,11.4,31.4,25.4
			c0.8,7.5-7.5,13.6-15.1,12.9c-7.5-0.8-15.9-5.3-18.2-12.5c-3.1-9.7-7.2-15.1-10.9-17.6c-9.9-6.7-16.1-8.3-23.3-8.5
			c-12.1-0.3-27.4,5.6-33.6,15.9c-4.5,7.4,1.3,14.2,3.6,22.5c2.5,9,2.6,23-7.9,36.4c-6.6,8.5-26,3.1-29.1-2.4
			c-6.9-12.1-6.8-19.8-2-32.8c1.8-4.9,5.1-9.1,7.1-13.9c2-4.8,4.9-19.5-2.2-22.4C355.5,398.8,344.5,389,331,376.5z"/>
		<g>
			<path d="M334.2,373.4c-5.4-4.9-11.4-10.2-18.7-11.8c-6.1-1.3-13.6-0.9-19.5,1.1c-7.1,2.5-13.3,7.7-16.5,14.6
				c-1.4,3.1-1.7,6.7-3.5,9.6c-2,3.2-5.2,5.6-8.7,7.1c-13.9,6.2-31-4.9-34.4-18.9c-0.3-1.4-0.1-0.5-0.2-1.5c-0.1-1.5-0.2-3,0-4.4
				c0.2-3.3,1.2-6.6,3-9.3c7.3-11.4,22.8-9.2,34.4-10.7c13.1-1.7,26.5-10,29.2-24c1.5-7.8-0.7-15.5-1.6-23.1
				c-0.8-7.4-0.8-14.7,0-22.1c0.8-8.5,2.9-16.6,0.2-24.9c-2.4-7.5-7.3-13.4-14.5-16.7c-14.8-6.9-31.8,0.1-47.4-2.5
				c-5.5-0.9-12.9-3.4-15.6-8.8c-3.7-7.4-1.3-16.8,4.9-22.1c16-13.6,34.8,10.9,47.9,18.1c14.8,8.2,31.3,5,43.9-5.8
				c10.7-9.1,19.1-26,12.4-39.7c-1.3-2.7-2.7-5.7-0.1-8.3c1.6-1.5,3.5-2.1,5.5-1.5c0.7,0.2,1.3,0.5,2.3,1.7c2.5,2.8,4,6.4,6.1,9.6
				c7.7,12.2,24.7,9.9,35.8,4.2c11.8-6,22.8-15,25.8-28.4c3.3-14.7-3.9-27.4-4.3-41.9c-0.2-7.7,4.9-14.3,12.1-16.8
				c7.4-2.5,15.1,1.9,18.8,8.4c4.3,7.7,0.4,19-1,27c-1.5,8.3-2.5,16.5-1.4,24.9c1.9,14.2,10.4,24.4,23.3,30.2
				c11.4,5.1,22.5,10.2,32.7,17.4c12.9,9.2,25.5,17.2,42.1,16.2c9.2-0.6,17.6-4.1,25.8-8c8.2-3.8,17.2-8.8,26.5-8.2
				c7.7,0.4,17.7,8.4,10.3,16c-5.3,5.4-13.9,5.5-20.8,5c-8.7-0.6-17.6-1.6-25.8,2.2c-6.6,3.1-11.2,9-14,15.6
				c-3.1,7.2-4.2,15.1-4.8,22.9c-0.7,9.5-0.8,19.2,1.8,28.4c2.1,7.6,6.2,14.9,12.2,20.1c6.7,5.8,14.3,8,23,8.3
				c4.3,0.2,9.4-0.4,13.1,2c3.5,2.3,6,6.6,5.9,10.8c-0.3,8-7.8,14.2-15.7,12.5c-13-2.9-21.5-16.1-35.8-14.2
				c-7.5,1-11.9,6.6-15.8,12.6c-4.4,6.7-8.8,13.4-13.9,19.7c-5.2,6.4-12.8,12-15.7,19.9c-5,13.7,1,29.5,13.8,36.2
				c5.1,2.7,11.1,4.3,15.8,7.7c6.2,4.6,3.5,12.3-4,13.6c-3.7,0.6-7.9-0.9-11-2.8c-4.3-2.6-5.4-6.1-7.2-10.6
				c-2.5-6.2-5.8-12.1-11.4-16c-13.4-9.5-29.1-11.6-44.4-5.5c-6.8,2.7-13.3,6.8-17.5,12.9c-5,7.1-3.1,14.1-0.1,21.6
				c2.9,7.2,4.3,14.5,2.7,22.3c-1.4,6.6-5,17.4-12.7,18.7c-4.8,0.8-12.4-0.3-16.1-3.8c-5.4-5.1-6.2-15.4-4.6-22.2
				c3.3-14.1,15.2-25.3,11.5-40.8c-1.9-8.2-9.6-9.6-16.4-12.7c-7.4-3.2-14.6-6.8-21.5-10.9C350.7,387.9,342.4,380.9,334.2,373.4
				c-4.2-3.9-10.5,2.4-6.3,6.3c8.9,8.2,18,15.9,28.5,22c7.3,4.3,14.9,7.9,22.6,11.2c2.9,1.2,8.5,2.4,10.2,5c1.5,2.2,0.8,6.6,0.4,9
				c-1.2,8-6.5,14.2-9.3,21.7c-2.9,7.8-4.4,16.1-2.2,24.3c1.7,6.3,4.7,12.9,10.6,16.2c5.4,3,12.1,4.4,18.2,3.9
				c16.2-1.4,23.2-21.9,22.8-36c-0.3-8.1-3.6-14.4-5.9-21.9c-2.8-9,6.8-15.1,14.1-18.1c13.8-5.6,33.3-3.4,41.7,10.4
				c4.4,7.4,5.1,15.1,12.7,20.3c6.3,4.3,14.9,6.4,22.2,3.5c6.9-2.8,12.2-9.5,11-17.2c-0.9-5.8-4.8-9.9-9.7-12.8
				c-5.3-3.1-11.3-4.8-16.5-8c-6.6-4.1-9.3-12.3-8.5-19.9c1-9.1,10.5-15.7,15.9-22.5c5-6.4,9.6-13.1,14.1-19.9
				c4-6,8.8-10.7,16.4-7.4c12.8,5.5,24.5,19.1,39.6,11.6c15-7.5,16.4-28.2,2.7-37.7c-8-5.6-18.2-2.1-27.1-4.9
				c-8.2-2.6-14.2-10.3-17-18.2c-3.5-9.9-3.1-20.7-2.1-31c0.7-7.8,2.3-16.7,7.3-23c6.1-7.7,15.9-7.2,24.8-6.6
				c7.8,0.6,15.3,0.9,22.7-2.3c6.2-2.6,11.5-7.5,12.6-14.5c1.3-8.1-3.5-15.7-10.7-19.2c-17.6-8.8-35.5,5.3-51.5,11
				c-9,3.2-18.7,3.7-27.9,0.5c-7.5-2.6-13.8-7.5-20.2-12c-10.4-7.4-21.6-12.8-33.3-18c-6.5-2.9-12.4-6.5-16-12.9
				c-3.7-6.6-4.2-14.5-3.7-21.9c1.1-16.8,11-36.9-3.4-50.6c-11.5-10.9-28.7-9-38,3.8c-9.3,13-1.9,28.3,0.2,42.3
				c2.4,15.9-6.2,26.6-19.3,34c-5.9,3.4-13.3,6-20.2,4.5c-7.3-1.6-9-10.5-13.6-15.5c-6.9-7.6-21.2-5-24,5.5
				c-0.9,3.1-0.6,6.6,0.5,9.6c1.3,3.5,3.1,5.8,3,9.7c-0.3,8.5-4.9,16.3-11.1,22c-6.4,5.8-15.6,10.1-24.4,8.9
				c-8.8-1.3-16.3-7.6-23-12.9c-7.1-5.7-14.6-11.7-23.9-13.4c-8.5-1.6-17.2,1.3-23.1,7.6c-9.8,10.3-10.9,29.4,1.4,38.2
				c12.9,9.2,29.3,7.3,44.1,6.1c8.7-0.7,18.9,0.1,24.1,8.2c5.2,8.1,2.8,17,1.8,25.8c-0.8,7.7-1,15.3-0.2,23
				c0.8,7.5,3.8,16.1,1.4,23.6c-5.2,17-24.4,14.7-38.2,16.6c-11.4,1.6-22,7.2-26.3,18.3c-2.1,5.5-2.6,11.9-1.3,17.7
				c3.3,14.6,19.3,27.4,34.4,27.3c7-0.1,13.9-2.8,19.3-7.2c2.6-2.2,4.9-4.9,6.5-7.9c1.8-3.6,2.1-7.7,4.4-11.1
				c4.6-6.9,12.4-8.9,20.3-8.9c7.7,0,13.3,4.9,18.7,9.8C332.1,383.5,338.5,377.3,334.2,373.4z"/>
		</g>
	</g>
	
		<ellipse transform="matrix(2.215331e-02 -0.9998 0.9998 2.215331e-02 113.132 695.1039)" class="st3" cx="411.9" cy="289.7" rx="111.6" ry="111.6"/>
	<g>
		<path d="M485,382.2c-16,15.4,38.2-34.8,36.1-46.4c-1.6-8.7-6.4-37.8-9.7-46.1c-8.5-21.1-14.7-26.8-28.3-36.1
			c-7-4.8-20.6-7.1-28.7-4.6c-34.8,10.8-12.5,47.6-3.7,53.8c13,9.2,23.4,9.6,36,16.5C494.6,323.9,527.2,341.5,485,382.2z"/>
		<g>
			<path d="M480.8,378c-1,0.9-2.1,1.9-3,2.9c-2.8,3.5-1.9,8.4,2.6,9.9c3.7,1.2,6.4-2,8.7-4.3c3.3-3.2,6.5-6.5,9.6-9.8
				c8.1-8.5,16.3-17.3,22.9-27.1c2.2-3.3,4.5-7,5.2-11c1-5.4-1.3-12.1-2.3-17.4c-2.9-15.8-5.6-31.1-12.9-45.5
				c-6.9-13.6-19.3-26.3-34-31.3c-15.5-5.3-36.5-2.1-44.9,13.6c-6.1,11.4-2.5,25.3,3.5,36c2.4,4.3,5.4,8.7,9.2,12
				c7.4,6.5,17.2,9.8,26.2,13.1c6.1,2.2,12,4.8,17.3,8.4c3.1,2.1,6.6,5.1,8.7,8.6C506.5,351.1,490.8,368.2,480.8,378
				c-5.5,5.4,2.9,13.8,8.4,8.4c11-10.7,23.4-25.2,22.9-41.6c-0.3-9.7-5.5-18.2-12.9-24.2c-9.4-7.5-20.7-11-31.7-15.4
				c-7.2-2.8-12.6-5.4-16.9-10.7c-2.7-3.4-5.3-7.9-7-12.2c-4.1-10.9-2.5-21.4,9.1-26.4c14.5-6.2,30.1,2.7,40,13.2
				c9.8,10.4,14.1,24.6,17,38.2c1.5,7.2,2.8,14.4,4.1,21.6c0.4,2.5,0.6,5.3,1.4,7.8c-0.3-0.8-0.4,0.3,0.1-0.8
				c-0.2,0.4-0.7,2.3-0.6,2c-3.6,8.8-13,18.2-19.9,25.6c-3.7,4-7.5,7.9-11.3,11.8c-1.2,1.2-2.5,2.5-3.7,3.7
				c-0.6,0.6-3.2,2.8-0.7,0.9c1.5-0.2,3.1-0.4,4.6-0.6c0,0,0,0,0,0c0.9,3.3,1.8,6.6,2.6,9.9c0.8-1.1,2-2,3-2.9
				C494.7,381,486.3,372.6,480.8,378z"/>
		</g>
	</g>
	<circle class="st0" cx="520.4" cy="184.6" r="9.7"/>
	<circle class="st0" cx="451.7" cy="85.3" r="8.4"/>
	<circle class="st0" cx="614.8" cy="222.3" r="6.7"/>
	<circle class="st0" cx="355.5" cy="425.3" r="12.9"/>
	
		<ellipse transform="matrix(0.6126 -0.7904 0.7904 0.6126 -117.2282 553.6689)" class="st0" cx="506.2" cy="396.4" rx="6.4" ry="6.4"/>
	<circle class="st0" cx="299.4" cy="137.4" r="16.6"/>
	<circle class="st4" cx="587.3" cy="359.9" r="4.7"/>
	<circle class="st0" cx="273.2" cy="314.6" r="9.7"/>
	<circle class="st4" cx="294.7" cy="193.3" r="4.7"/>
	<g>
		<path d="M346.2,192.1c7-5.7-48.3,36.2-46,48.5c1.7,9.3,8.1,38.6,11.8,47.2c12.4,28.8,18.1,30.2,26.4,36.6
			c7.1,5.5,21.5,5.5,29.9,2.4c8.4-3.2,14.7-13,16.3-21.8c3.7-19.4-16-30.5-24-33.5c-13.8-5.2-37.5-2.8-43-17.8
			C312.1,238.5,315.7,217,346.2,192.1z"/>
		<g>
			<path d="M350.4,196.3c0.2-0.2,0.4-0.3,0.6-0.5c2.2-2.6,2.6-7.7-1.2-9.3c-4.4-1.9-6.9,0.6-10.1,3.1c-3.4,2.7-6.8,5.5-10.2,8.3
				c-9.3,7.8-18.6,15.9-26.5,25.1c-3.1,3.7-6.4,7.7-8,12.3c-1.7,4.8-0.1,9.7,0.9,14.6c3.1,14.7,5.9,29.9,12.1,43.6
				c5.5,12.3,11.6,24.3,22.5,32.5c5.2,3.9,10.1,7.1,16.7,8.3c8.3,1.4,17.7,0.9,25.3-2.7c16.2-7.8,23.3-30.6,14.4-46.1
				c-6.7-11.7-19.8-19.1-32.7-21.8c-8-1.6-16.9-2-24.4-5.5c-6.1-2.9-8.1-8.7-8.4-15.1C320.6,223.6,336.7,207.7,350.4,196.3
				c5.9-4.9-2.5-13.3-8.4-8.4c-13.1,10.9-26,24.3-30.7,41.2c-3.1,10.9-2.8,25.5,5.4,34.2c9.7,10.4,26.1,9.4,38.8,12.9
				c9.8,2.7,22.3,10.8,23.6,22.3c0.9,7.8-3.6,17.1-10.1,21.4c-6,4-15.7,4-22.4,2c-3.9-1.2-8.4-4.8-10.7-6.8c-3.5-3-6.3-6.4-8.7-10.3
				c-7.8-12.7-12.3-26.2-15.7-40.6c-1.7-6.9-3.2-13.9-4.6-20.9c-0.2-1.2-0.4-2.4-0.7-3.6c-0.3-1.3,0.3,0.4-0.1,0.6
				c0.6-0.3,1-2.6,1.7-3.8c6-9.8,15.8-17.7,24.4-25.2c4.2-3.6,8.4-7.2,12.7-10.6c0.8-0.6,1.6-1.3,2.4-1.9c0.7-0.5,1.7-1.4,1-0.8
				c0.6-0.4,1.1-0.9,1.7-1.3c-2,0-4,0-6,0c0,0,0,0,0,0c-0.4-3.1-0.8-6.2-1.2-9.3c-0.2,0.2-0.4,0.4-0.6,0.5
				C336.1,192.8,344.5,201.1,350.4,196.3z"/>
		</g>
	</g>
</g>
</svg>
